<mxfile host="app.diagrams.net" modified="2020-08-07T22:28:31.274Z" agent="5.0 (Windows NT 10.0; Win64; x64) AppleWebKit/537.36 (KHTML, like Gecko) Chrome/84.0.4147.105 Safari/537.36" etag="rFdhlaNLBqbBnP4yniDP" version="13.6.0" type="github">
  <diagram id="C5RBs43oDa-KdzZeNtuy" name="Page-1">
    <mxGraphModel dx="2249" dy="1882" grid="1" gridSize="10" guides="1" tooltips="1" connect="1" arrows="1" fold="1" page="1" pageScale="1" pageWidth="827" pageHeight="1169" math="0" shadow="0">
      <root>
        <mxCell id="WIyWlLk6GJQsqaUBKTNV-0" />
        <mxCell id="WIyWlLk6GJQsqaUBKTNV-1" parent="WIyWlLk6GJQsqaUBKTNV-0" />
        <mxCell id="hlS4nl4Ak6eGVIMuQ3UB-6" value="Usuario" style="swimlane;fontStyle=0;childLayout=stackLayout;horizontal=1;startSize=26;fillColor=none;horizontalStack=0;resizeParent=1;resizeParentMax=0;resizeLast=0;collapsible=1;marginBottom=0;align=center;" parent="WIyWlLk6GJQsqaUBKTNV-1" vertex="1">
          <mxGeometry x="-200" y="40" width="150" height="182" as="geometry" />
        </mxCell>
        <mxCell id="hlS4nl4Ak6eGVIMuQ3UB-9" value="+ Nombre: String" style="text;strokeColor=none;fillColor=none;align=left;verticalAlign=top;spacingLeft=4;spacingRight=4;overflow=hidden;rotatable=0;points=[[0,0.5],[1,0.5]];portConstraint=eastwest;" parent="hlS4nl4Ak6eGVIMuQ3UB-6" vertex="1">
          <mxGeometry y="26" width="150" height="26" as="geometry" />
        </mxCell>
        <mxCell id="hlS4nl4Ak6eGVIMuQ3UB-12" value="+ Apellido: String" style="text;strokeColor=none;fillColor=none;align=left;verticalAlign=top;spacingLeft=4;spacingRight=4;overflow=hidden;rotatable=0;points=[[0,0.5],[1,0.5]];portConstraint=eastwest;" parent="hlS4nl4Ak6eGVIMuQ3UB-6" vertex="1">
          <mxGeometry y="52" width="150" height="26" as="geometry" />
        </mxCell>
        <mxCell id="hlS4nl4Ak6eGVIMuQ3UB-13" value="+ Email: String" style="text;strokeColor=none;fillColor=none;align=left;verticalAlign=top;spacingLeft=4;spacingRight=4;overflow=hidden;rotatable=0;points=[[0,0.5],[1,0.5]];portConstraint=eastwest;" parent="hlS4nl4Ak6eGVIMuQ3UB-6" vertex="1">
          <mxGeometry y="78" width="150" height="26" as="geometry" />
        </mxCell>
        <mxCell id="hlS4nl4Ak6eGVIMuQ3UB-11" value="+ Telefono: Int" style="text;strokeColor=none;fillColor=none;align=left;verticalAlign=top;spacingLeft=4;spacingRight=4;overflow=hidden;rotatable=0;points=[[0,0.5],[1,0.5]];portConstraint=eastwest;" parent="hlS4nl4Ak6eGVIMuQ3UB-6" vertex="1">
          <mxGeometry y="104" width="150" height="26" as="geometry" />
        </mxCell>
        <mxCell id="hlS4nl4Ak6eGVIMuQ3UB-15" value="+ N.Usuario: String" style="text;strokeColor=none;fillColor=none;align=left;verticalAlign=top;spacingLeft=4;spacingRight=4;overflow=hidden;rotatable=0;points=[[0,0.5],[1,0.5]];portConstraint=eastwest;" parent="hlS4nl4Ak6eGVIMuQ3UB-6" vertex="1">
          <mxGeometry y="130" width="150" height="26" as="geometry" />
        </mxCell>
        <mxCell id="hlS4nl4Ak6eGVIMuQ3UB-16" value="+ Contraseña: String" style="text;strokeColor=none;fillColor=none;align=left;verticalAlign=top;spacingLeft=4;spacingRight=4;overflow=hidden;rotatable=0;points=[[0,0.5],[1,0.5]];portConstraint=eastwest;" parent="hlS4nl4Ak6eGVIMuQ3UB-6" vertex="1">
          <mxGeometry y="156" width="150" height="26" as="geometry" />
        </mxCell>
        <mxCell id="hlS4nl4Ak6eGVIMuQ3UB-52" value="Forma de Pago" style="swimlane;fontStyle=0;childLayout=stackLayout;horizontal=1;startSize=26;fillColor=none;horizontalStack=0;resizeParent=1;resizeParentMax=0;resizeLast=0;collapsible=1;marginBottom=0;align=center;" parent="WIyWlLk6GJQsqaUBKTNV-1" vertex="1">
          <mxGeometry x="200" y="400" width="140" height="78" as="geometry" />
        </mxCell>
        <mxCell id="hlS4nl4Ak6eGVIMuQ3UB-53" value="+ Tcredito: String" style="text;strokeColor=none;fillColor=none;align=left;verticalAlign=top;spacingLeft=4;spacingRight=4;overflow=hidden;rotatable=0;points=[[0,0.5],[1,0.5]];portConstraint=eastwest;" parent="hlS4nl4Ak6eGVIMuQ3UB-52" vertex="1">
          <mxGeometry y="26" width="140" height="26" as="geometry" />
        </mxCell>
        <mxCell id="hlS4nl4Ak6eGVIMuQ3UB-54" value="+ TBancaria: String" style="text;strokeColor=none;fillColor=none;align=left;verticalAlign=top;spacingLeft=4;spacingRight=4;overflow=hidden;rotatable=0;points=[[0,0.5],[1,0.5]];portConstraint=eastwest;" parent="hlS4nl4Ak6eGVIMuQ3UB-52" vertex="1">
          <mxGeometry y="52" width="140" height="26" as="geometry" />
        </mxCell>
        <mxCell id="hlS4nl4Ak6eGVIMuQ3UB-21" value="Metodo de envio" style="swimlane;fontStyle=0;childLayout=stackLayout;horizontal=1;startSize=26;fillColor=none;horizontalStack=0;resizeParent=1;resizeParentMax=0;resizeLast=0;collapsible=1;marginBottom=0;align=center;" parent="WIyWlLk6GJQsqaUBKTNV-1" vertex="1">
          <mxGeometry y="400" width="140" height="104" as="geometry" />
        </mxCell>
        <mxCell id="hlS4nl4Ak6eGVIMuQ3UB-22" value="+ Direccion: String" style="text;strokeColor=none;fillColor=none;align=left;verticalAlign=top;spacingLeft=4;spacingRight=4;overflow=hidden;rotatable=0;points=[[0,0.5],[1,0.5]];portConstraint=eastwest;" parent="hlS4nl4Ak6eGVIMuQ3UB-21" vertex="1">
          <mxGeometry y="26" width="140" height="26" as="geometry" />
        </mxCell>
        <mxCell id="hlS4nl4Ak6eGVIMuQ3UB-23" value="+ Pais : String" style="text;strokeColor=none;fillColor=none;align=left;verticalAlign=top;spacingLeft=4;spacingRight=4;overflow=hidden;rotatable=0;points=[[0,0.5],[1,0.5]];portConstraint=eastwest;" parent="hlS4nl4Ak6eGVIMuQ3UB-21" vertex="1">
          <mxGeometry y="52" width="140" height="26" as="geometry" />
        </mxCell>
        <mxCell id="hlS4nl4Ak6eGVIMuQ3UB-25" value="+ Tipo de envio : String" style="text;strokeColor=none;fillColor=none;align=left;verticalAlign=top;spacingLeft=4;spacingRight=4;overflow=hidden;rotatable=0;points=[[0,0.5],[1,0.5]];portConstraint=eastwest;" parent="hlS4nl4Ak6eGVIMuQ3UB-21" vertex="1">
          <mxGeometry y="78" width="140" height="26" as="geometry" />
        </mxCell>
        <mxCell id="hlS4nl4Ak6eGVIMuQ3UB-35" value="Direccion" style="swimlane;fontStyle=0;childLayout=stackLayout;horizontal=1;startSize=26;fillColor=none;horizontalStack=0;resizeParent=1;resizeParentMax=0;resizeLast=0;collapsible=1;marginBottom=0;align=center;" parent="WIyWlLk6GJQsqaUBKTNV-1" vertex="1">
          <mxGeometry x="-180" y="400" width="140" height="104" as="geometry" />
        </mxCell>
        <mxCell id="hlS4nl4Ak6eGVIMuQ3UB-36" value="+ Calle: String " style="text;strokeColor=none;fillColor=none;align=left;verticalAlign=top;spacingLeft=4;spacingRight=4;overflow=hidden;rotatable=0;points=[[0,0.5],[1,0.5]];portConstraint=eastwest;" parent="hlS4nl4Ak6eGVIMuQ3UB-35" vertex="1">
          <mxGeometry y="26" width="140" height="26" as="geometry" />
        </mxCell>
        <mxCell id="hlS4nl4Ak6eGVIMuQ3UB-37" value="+ Numero : Int" style="text;strokeColor=none;fillColor=none;align=left;verticalAlign=top;spacingLeft=4;spacingRight=4;overflow=hidden;rotatable=0;points=[[0,0.5],[1,0.5]];portConstraint=eastwest;" parent="hlS4nl4Ak6eGVIMuQ3UB-35" vertex="1">
          <mxGeometry y="52" width="140" height="26" as="geometry" />
        </mxCell>
        <mxCell id="hlS4nl4Ak6eGVIMuQ3UB-38" value="+ Esquina:  String" style="text;strokeColor=none;fillColor=none;align=left;verticalAlign=top;spacingLeft=4;spacingRight=4;overflow=hidden;rotatable=0;points=[[0,0.5],[1,0.5]];portConstraint=eastwest;" parent="hlS4nl4Ak6eGVIMuQ3UB-35" vertex="1">
          <mxGeometry y="78" width="140" height="26" as="geometry" />
        </mxCell>
        <mxCell id="hlS4nl4Ak6eGVIMuQ3UB-43" value="Carrito" style="swimlane;fontStyle=0;childLayout=stackLayout;horizontal=1;startSize=26;fillColor=none;horizontalStack=0;resizeParent=1;resizeParentMax=0;resizeLast=0;collapsible=1;marginBottom=0;align=center;" parent="WIyWlLk6GJQsqaUBKTNV-1" vertex="1">
          <mxGeometry x="200" y="40" width="140" height="182" as="geometry" />
        </mxCell>
        <mxCell id="hlS4nl4Ak6eGVIMuQ3UB-44" value="+ ArticulosSelec. : Array" style="text;strokeColor=none;fillColor=none;align=left;verticalAlign=top;spacingLeft=4;spacingRight=4;overflow=hidden;rotatable=0;points=[[0,0.5],[1,0.5]];portConstraint=eastwest;" parent="hlS4nl4Ak6eGVIMuQ3UB-43" vertex="1">
          <mxGeometry y="26" width="140" height="26" as="geometry" />
        </mxCell>
        <mxCell id="hlS4nl4Ak6eGVIMuQ3UB-45" value="+ Cant. Selec.:  Int" style="text;strokeColor=none;fillColor=none;align=left;verticalAlign=top;spacingLeft=4;spacingRight=4;overflow=hidden;rotatable=0;points=[[0,0.5],[1,0.5]];portConstraint=eastwest;" parent="hlS4nl4Ak6eGVIMuQ3UB-43" vertex="1">
          <mxGeometry y="52" width="140" height="26" as="geometry" />
        </mxCell>
        <mxCell id="hlS4nl4Ak6eGVIMuQ3UB-47" value="+ Costo Selec : Array" style="text;strokeColor=none;fillColor=none;align=left;verticalAlign=top;spacingLeft=4;spacingRight=4;overflow=hidden;rotatable=0;points=[[0,0.5],[1,0.5]];portConstraint=eastwest;" parent="hlS4nl4Ak6eGVIMuQ3UB-43" vertex="1">
          <mxGeometry y="78" width="140" height="26" as="geometry" />
        </mxCell>
        <mxCell id="hlS4nl4Ak6eGVIMuQ3UB-48" value="+ CostoSubTotal: Int" style="text;strokeColor=none;fillColor=none;align=left;verticalAlign=top;spacingLeft=4;spacingRight=4;overflow=hidden;rotatable=0;points=[[0,0.5],[1,0.5]];portConstraint=eastwest;" parent="hlS4nl4Ak6eGVIMuQ3UB-43" vertex="1">
          <mxGeometry y="104" width="140" height="26" as="geometry" />
        </mxCell>
        <mxCell id="hlS4nl4Ak6eGVIMuQ3UB-49" value="+ CostoEnvio: Int" style="text;strokeColor=none;fillColor=none;align=left;verticalAlign=top;spacingLeft=4;spacingRight=4;overflow=hidden;rotatable=0;points=[[0,0.5],[1,0.5]];portConstraint=eastwest;" parent="hlS4nl4Ak6eGVIMuQ3UB-43" vertex="1">
          <mxGeometry y="130" width="140" height="26" as="geometry" />
        </mxCell>
        <mxCell id="hlS4nl4Ak6eGVIMuQ3UB-50" value="+ CostoTotal: Int" style="text;strokeColor=none;fillColor=none;align=left;verticalAlign=top;spacingLeft=4;spacingRight=4;overflow=hidden;rotatable=0;points=[[0,0.5],[1,0.5]];portConstraint=eastwest;" parent="hlS4nl4Ak6eGVIMuQ3UB-43" vertex="1">
          <mxGeometry y="156" width="140" height="26" as="geometry" />
        </mxCell>
        <mxCell id="hlS4nl4Ak6eGVIMuQ3UB-63" value="Articulo" style="swimlane;fontStyle=0;childLayout=stackLayout;horizontal=1;startSize=26;fillColor=none;horizontalStack=0;resizeParent=1;resizeParentMax=0;resizeLast=0;collapsible=1;marginBottom=0;align=center;" parent="WIyWlLk6GJQsqaUBKTNV-1" vertex="1">
          <mxGeometry x="480" y="40" width="140" height="238" as="geometry" />
        </mxCell>
        <mxCell id="hlS4nl4Ak6eGVIMuQ3UB-64" value="+ Nombre: String" style="text;strokeColor=none;fillColor=none;align=left;verticalAlign=top;spacingLeft=4;spacingRight=4;overflow=hidden;rotatable=0;points=[[0,0.5],[1,0.5]];portConstraint=eastwest;" parent="hlS4nl4Ak6eGVIMuQ3UB-63" vertex="1">
          <mxGeometry y="26" width="140" height="26" as="geometry" />
        </mxCell>
        <mxCell id="hlS4nl4Ak6eGVIMuQ3UB-65" value="+ Descripcion: String" style="text;strokeColor=none;fillColor=none;align=left;verticalAlign=top;spacingLeft=4;spacingRight=4;overflow=hidden;rotatable=0;points=[[0,0.5],[1,0.5]];portConstraint=eastwest;" parent="hlS4nl4Ak6eGVIMuQ3UB-63" vertex="1">
          <mxGeometry y="52" width="140" height="26" as="geometry" />
        </mxCell>
        <mxCell id="hlS4nl4Ak6eGVIMuQ3UB-66" value="+ Costo: Int" style="text;strokeColor=none;fillColor=none;align=left;verticalAlign=top;spacingLeft=4;spacingRight=4;overflow=hidden;rotatable=0;points=[[0,0.5],[1,0.5]];portConstraint=eastwest;" parent="hlS4nl4Ak6eGVIMuQ3UB-63" vertex="1">
          <mxGeometry y="78" width="140" height="26" as="geometry" />
        </mxCell>
        <mxCell id="hlS4nl4Ak6eGVIMuQ3UB-70" value="+ Moneda: String&#xa;" style="text;strokeColor=none;fillColor=none;align=left;verticalAlign=top;spacingLeft=4;spacingRight=4;overflow=hidden;rotatable=0;points=[[0,0.5],[1,0.5]];portConstraint=eastwest;" parent="hlS4nl4Ak6eGVIMuQ3UB-63" vertex="1">
          <mxGeometry y="104" width="140" height="30" as="geometry" />
        </mxCell>
        <mxCell id="hlS4nl4Ak6eGVIMuQ3UB-68" value="+ Cantidad: Int" style="text;strokeColor=none;fillColor=none;align=left;verticalAlign=top;spacingLeft=4;spacingRight=4;overflow=hidden;rotatable=0;points=[[0,0.5],[1,0.5]];portConstraint=eastwest;" parent="hlS4nl4Ak6eGVIMuQ3UB-63" vertex="1">
          <mxGeometry y="134" width="140" height="26" as="geometry" />
        </mxCell>
        <mxCell id="hlS4nl4Ak6eGVIMuQ3UB-69" value="+ Categoria: String" style="text;strokeColor=none;fillColor=none;align=left;verticalAlign=top;spacingLeft=4;spacingRight=4;overflow=hidden;rotatable=0;points=[[0,0.5],[1,0.5]];portConstraint=eastwest;" parent="hlS4nl4Ak6eGVIMuQ3UB-63" vertex="1">
          <mxGeometry y="160" width="140" height="26" as="geometry" />
        </mxCell>
        <mxCell id="hlS4nl4Ak6eGVIMuQ3UB-71" value="+ Imagenes: Array" style="text;strokeColor=none;fillColor=none;align=left;verticalAlign=top;spacingLeft=4;spacingRight=4;overflow=hidden;rotatable=0;points=[[0,0.5],[1,0.5]];portConstraint=eastwest;" parent="hlS4nl4Ak6eGVIMuQ3UB-63" vertex="1">
          <mxGeometry y="186" width="140" height="26" as="geometry" />
        </mxCell>
        <mxCell id="hlS4nl4Ak6eGVIMuQ3UB-72" value="+ Productos Rel: Array" style="text;strokeColor=none;fillColor=none;align=left;verticalAlign=top;spacingLeft=4;spacingRight=4;overflow=hidden;rotatable=0;points=[[0,0.5],[1,0.5]];portConstraint=eastwest;" parent="hlS4nl4Ak6eGVIMuQ3UB-63" vertex="1">
          <mxGeometry y="212" width="140" height="26" as="geometry" />
        </mxCell>
        <mxCell id="hlS4nl4Ak6eGVIMuQ3UB-75" value="Categoria" style="swimlane;fontStyle=0;childLayout=stackLayout;horizontal=1;startSize=26;fillColor=none;horizontalStack=0;resizeParent=1;resizeParentMax=0;resizeLast=0;collapsible=1;marginBottom=0;align=center;" parent="WIyWlLk6GJQsqaUBKTNV-1" vertex="1">
          <mxGeometry x="660" y="320" width="140" height="132" as="geometry" />
        </mxCell>
        <mxCell id="hlS4nl4Ak6eGVIMuQ3UB-76" value="+ Nombre: String" style="text;strokeColor=none;fillColor=none;align=left;verticalAlign=top;spacingLeft=4;spacingRight=4;overflow=hidden;rotatable=0;points=[[0,0.5],[1,0.5]];portConstraint=eastwest;" parent="hlS4nl4Ak6eGVIMuQ3UB-75" vertex="1">
          <mxGeometry y="26" width="140" height="26" as="geometry" />
        </mxCell>
        <mxCell id="hlS4nl4Ak6eGVIMuQ3UB-77" value="+ Descripcion: String" style="text;strokeColor=none;fillColor=none;align=left;verticalAlign=top;spacingLeft=4;spacingRight=4;overflow=hidden;rotatable=0;points=[[0,0.5],[1,0.5]];portConstraint=eastwest;" parent="hlS4nl4Ak6eGVIMuQ3UB-75" vertex="1">
          <mxGeometry y="52" width="140" height="28" as="geometry" />
        </mxCell>
        <mxCell id="hlS4nl4Ak6eGVIMuQ3UB-78" value="+ Cantidad prod.: Int" style="text;strokeColor=none;fillColor=none;align=left;verticalAlign=top;spacingLeft=4;spacingRight=4;overflow=hidden;rotatable=0;points=[[0,0.5],[1,0.5]];portConstraint=eastwest;" parent="hlS4nl4Ak6eGVIMuQ3UB-75" vertex="1">
          <mxGeometry y="80" width="140" height="26" as="geometry" />
        </mxCell>
        <mxCell id="hlS4nl4Ak6eGVIMuQ3UB-79" value="+ Imagen.: String" style="text;strokeColor=none;fillColor=none;align=left;verticalAlign=top;spacingLeft=4;spacingRight=4;overflow=hidden;rotatable=0;points=[[0,0.5],[1,0.5]];portConstraint=eastwest;" parent="hlS4nl4Ak6eGVIMuQ3UB-75" vertex="1">
          <mxGeometry y="106" width="140" height="26" as="geometry" />
        </mxCell>
        <mxCell id="hlS4nl4Ak6eGVIMuQ3UB-91" value="" style="endArrow=open;html=1;endSize=12;startArrow=diamondThin;startSize=14;startFill=0;edgeStyle=orthogonalEdgeStyle;exitX=0.436;exitY=0;exitDx=0;exitDy=0;exitPerimeter=0;" parent="WIyWlLk6GJQsqaUBKTNV-1" edge="1">
          <mxGeometry y="-310" relative="1" as="geometry">
            <mxPoint x="748.0999999999999" y="320" as="sourcePoint" />
            <mxPoint x="620" y="57" as="targetPoint" />
            <Array as="points">
              <mxPoint x="748" y="58" />
              <mxPoint x="624" y="58" />
            </Array>
            <mxPoint as="offset" />
          </mxGeometry>
        </mxCell>
        <mxCell id="hlS4nl4Ak6eGVIMuQ3UB-92" value="0..n" style="edgeLabel;resizable=0;html=1;align=left;verticalAlign=top;" parent="hlS4nl4Ak6eGVIMuQ3UB-91" connectable="0" vertex="1">
          <mxGeometry x="-1" relative="1" as="geometry">
            <mxPoint x="-108.1" y="-260" as="offset" />
          </mxGeometry>
        </mxCell>
        <mxCell id="hlS4nl4Ak6eGVIMuQ3UB-93" value="1" style="edgeLabel;resizable=0;html=1;align=right;verticalAlign=top;" parent="hlS4nl4Ak6eGVIMuQ3UB-91" connectable="0" vertex="1">
          <mxGeometry x="1" relative="1" as="geometry">
            <mxPoint x="119.9" y="213" as="offset" />
          </mxGeometry>
        </mxCell>
        <mxCell id="hlS4nl4Ak6eGVIMuQ3UB-94" value="" style="endArrow=open;html=1;endSize=12;startArrow=diamondThin;startSize=14;startFill=0;edgeStyle=orthogonalEdgeStyle;exitX=0.157;exitY=1.154;exitDx=0;exitDy=0;exitPerimeter=0;" parent="WIyWlLk6GJQsqaUBKTNV-1" source="hlS4nl4Ak6eGVIMuQ3UB-72" edge="1">
          <mxGeometry relative="1" as="geometry">
            <mxPoint x="500" y="490" as="sourcePoint" />
            <mxPoint x="502" y="490" as="targetPoint" />
            <Array as="points">
              <mxPoint x="502" y="490" />
            </Array>
          </mxGeometry>
        </mxCell>
        <mxCell id="hlS4nl4Ak6eGVIMuQ3UB-95" value="0..n" style="edgeLabel;resizable=0;html=1;align=left;verticalAlign=top;" parent="hlS4nl4Ak6eGVIMuQ3UB-94" connectable="0" vertex="1">
          <mxGeometry x="-1" relative="1" as="geometry">
            <mxPoint x="8" y="170" as="offset" />
          </mxGeometry>
        </mxCell>
        <mxCell id="hlS4nl4Ak6eGVIMuQ3UB-80" value="Comentario" style="swimlane;fontStyle=0;childLayout=stackLayout;horizontal=1;startSize=26;fillColor=none;horizontalStack=0;resizeParent=1;resizeParentMax=0;resizeLast=0;collapsible=1;marginBottom=0;align=center;" parent="WIyWlLk6GJQsqaUBKTNV-1" vertex="1">
          <mxGeometry x="450" y="490" width="140" height="130" as="geometry" />
        </mxCell>
        <mxCell id="hlS4nl4Ak6eGVIMuQ3UB-81" value="+ Puntuacion: int" style="text;strokeColor=none;fillColor=none;align=left;verticalAlign=top;spacingLeft=4;spacingRight=4;overflow=hidden;rotatable=0;points=[[0,0.5],[1,0.5]];portConstraint=eastwest;" parent="hlS4nl4Ak6eGVIMuQ3UB-80" vertex="1">
          <mxGeometry y="26" width="140" height="26" as="geometry" />
        </mxCell>
        <mxCell id="hlS4nl4Ak6eGVIMuQ3UB-82" value="+ Descripcion: String" style="text;strokeColor=none;fillColor=none;align=left;verticalAlign=top;spacingLeft=4;spacingRight=4;overflow=hidden;rotatable=0;points=[[0,0.5],[1,0.5]];portConstraint=eastwest;" parent="hlS4nl4Ak6eGVIMuQ3UB-80" vertex="1">
          <mxGeometry y="52" width="140" height="26" as="geometry" />
        </mxCell>
        <mxCell id="hlS4nl4Ak6eGVIMuQ3UB-83" value="+ Usuario: String" style="text;strokeColor=none;fillColor=none;align=left;verticalAlign=top;spacingLeft=4;spacingRight=4;overflow=hidden;rotatable=0;points=[[0,0.5],[1,0.5]];portConstraint=eastwest;" parent="hlS4nl4Ak6eGVIMuQ3UB-80" vertex="1">
          <mxGeometry y="78" width="140" height="26" as="geometry" />
        </mxCell>
        <mxCell id="hlS4nl4Ak6eGVIMuQ3UB-85" value="+ Fecha: String" style="text;strokeColor=none;fillColor=none;align=left;verticalAlign=top;spacingLeft=4;spacingRight=4;overflow=hidden;rotatable=0;points=[[0,0.5],[1,0.5]];portConstraint=eastwest;" parent="hlS4nl4Ak6eGVIMuQ3UB-80" vertex="1">
          <mxGeometry y="104" width="140" height="26" as="geometry" />
        </mxCell>
        <mxCell id="hlS4nl4Ak6eGVIMuQ3UB-97" value="1" style="edgeLabel;resizable=0;html=1;align=left;verticalAlign=top;" parent="WIyWlLk6GJQsqaUBKTNV-1" connectable="0" vertex="1">
          <mxGeometry x="510" y="290.004" as="geometry" />
        </mxCell>
        <mxCell id="hlS4nl4Ak6eGVIMuQ3UB-103" value="" style="endArrow=open;html=1;endSize=12;startArrow=diamondThin;startSize=14;startFill=0;edgeStyle=orthogonalEdgeStyle;entryX=0.5;entryY=0;entryDx=0;entryDy=0;" parent="WIyWlLk6GJQsqaUBKTNV-1" target="hlS4nl4Ak6eGVIMuQ3UB-21" edge="1">
          <mxGeometry relative="1" as="geometry">
            <mxPoint x="-50" y="200" as="sourcePoint" />
            <mxPoint x="110" y="200" as="targetPoint" />
          </mxGeometry>
        </mxCell>
        <mxCell id="hlS4nl4Ak6eGVIMuQ3UB-104" value="1" style="edgeLabel;resizable=0;html=1;align=left;verticalAlign=top;" parent="hlS4nl4Ak6eGVIMuQ3UB-103" connectable="0" vertex="1">
          <mxGeometry x="-1" relative="1" as="geometry">
            <mxPoint x="20" as="offset" />
          </mxGeometry>
        </mxCell>
        <mxCell id="hlS4nl4Ak6eGVIMuQ3UB-106" value="" style="endArrow=open;html=1;endSize=12;startArrow=diamondThin;startSize=14;startFill=0;edgeStyle=orthogonalEdgeStyle;" parent="WIyWlLk6GJQsqaUBKTNV-1" edge="1">
          <mxGeometry relative="1" as="geometry">
            <mxPoint x="200" y="200" as="sourcePoint" />
            <mxPoint x="70" y="400" as="targetPoint" />
            <Array as="points">
              <mxPoint x="70" y="200" />
              <mxPoint x="70" y="360" />
            </Array>
          </mxGeometry>
        </mxCell>
        <mxCell id="hlS4nl4Ak6eGVIMuQ3UB-108" value="1" style="edgeLabel;resizable=0;html=1;align=right;verticalAlign=top;" parent="hlS4nl4Ak6eGVIMuQ3UB-106" connectable="0" vertex="1">
          <mxGeometry x="1" relative="1" as="geometry">
            <mxPoint x="10" y="-50" as="offset" />
          </mxGeometry>
        </mxCell>
        <mxCell id="hlS4nl4Ak6eGVIMuQ3UB-109" value="" style="endArrow=open;html=1;endSize=12;startArrow=diamondThin;startSize=14;startFill=0;edgeStyle=orthogonalEdgeStyle;" parent="WIyWlLk6GJQsqaUBKTNV-1" target="hlS4nl4Ak6eGVIMuQ3UB-35" edge="1">
          <mxGeometry relative="1" as="geometry">
            <mxPoint x="200" y="200" as="sourcePoint" />
            <mxPoint y="300" as="targetPoint" />
            <Array as="points">
              <mxPoint x="70" y="200" />
              <mxPoint x="70" y="300" />
              <mxPoint x="-110" y="300" />
            </Array>
          </mxGeometry>
        </mxCell>
        <mxCell id="hlS4nl4Ak6eGVIMuQ3UB-111" value="1" style="edgeLabel;resizable=0;html=1;align=right;verticalAlign=top;" parent="hlS4nl4Ak6eGVIMuQ3UB-109" connectable="0" vertex="1">
          <mxGeometry x="1" relative="1" as="geometry">
            <mxPoint x="10" y="-50" as="offset" />
          </mxGeometry>
        </mxCell>
        <mxCell id="hlS4nl4Ak6eGVIMuQ3UB-112" value="" style="endArrow=open;html=1;endSize=12;startArrow=diamondThin;startSize=14;startFill=0;edgeStyle=orthogonalEdgeStyle;entryX=0.5;entryY=0;entryDx=0;entryDy=0;" parent="WIyWlLk6GJQsqaUBKTNV-1" target="hlS4nl4Ak6eGVIMuQ3UB-52" edge="1">
          <mxGeometry relative="1" as="geometry">
            <mxPoint x="200" y="200" as="sourcePoint" />
            <mxPoint x="320" y="270" as="targetPoint" />
            <Array as="points">
              <mxPoint x="70" y="200" />
              <mxPoint x="70" y="300" />
              <mxPoint x="270" y="300" />
            </Array>
          </mxGeometry>
        </mxCell>
        <mxCell id="hlS4nl4Ak6eGVIMuQ3UB-114" value="1" style="edgeLabel;resizable=0;html=1;align=right;verticalAlign=top;" parent="hlS4nl4Ak6eGVIMuQ3UB-112" connectable="0" vertex="1">
          <mxGeometry x="1" relative="1" as="geometry">
            <mxPoint x="20" y="-50" as="offset" />
          </mxGeometry>
        </mxCell>
        <mxCell id="hlS4nl4Ak6eGVIMuQ3UB-115" value="1" style="edgeLabel;resizable=0;html=1;align=left;verticalAlign=top;" parent="WIyWlLk6GJQsqaUBKTNV-1" connectable="0" vertex="1">
          <mxGeometry x="170" y="200" as="geometry" />
        </mxCell>
        <mxCell id="hlS4nl4Ak6eGVIMuQ3UB-116" value="" style="endArrow=open;html=1;endSize=12;startArrow=diamondThin;startSize=14;startFill=0;edgeStyle=orthogonalEdgeStyle;" parent="WIyWlLk6GJQsqaUBKTNV-1" edge="1">
          <mxGeometry x="-0.2857" y="-41" relative="1" as="geometry">
            <mxPoint x="340" y="40" as="sourcePoint" />
            <mxPoint x="480" y="40" as="targetPoint" />
            <Array as="points">
              <mxPoint x="390" y="40" />
              <mxPoint x="390" y="40" />
            </Array>
            <mxPoint x="-10" y="-1" as="offset" />
          </mxGeometry>
        </mxCell>
        <mxCell id="hlS4nl4Ak6eGVIMuQ3UB-117" value="0..n" style="edgeLabel;resizable=0;html=1;align=left;verticalAlign=top;" parent="hlS4nl4Ak6eGVIMuQ3UB-116" connectable="0" vertex="1">
          <mxGeometry x="-1" relative="1" as="geometry">
            <mxPoint x="100" as="offset" />
          </mxGeometry>
        </mxCell>
        <mxCell id="hlS4nl4Ak6eGVIMuQ3UB-118" value="1" style="edgeLabel;resizable=0;html=1;align=right;verticalAlign=top;" parent="hlS4nl4Ak6eGVIMuQ3UB-116" connectable="0" vertex="1">
          <mxGeometry x="1" relative="1" as="geometry">
            <mxPoint x="-110" as="offset" />
          </mxGeometry>
        </mxCell>
        <mxCell id="hlS4nl4Ak6eGVIMuQ3UB-119" value="" style="endArrow=open;html=1;endSize=12;startArrow=diamondThin;startSize=14;startFill=0;edgeStyle=orthogonalEdgeStyle;exitX=0;exitY=0.5;exitDx=0;exitDy=0;entryX=1;entryY=0.5;entryDx=0;entryDy=0;" parent="WIyWlLk6GJQsqaUBKTNV-1" source="hlS4nl4Ak6eGVIMuQ3UB-82" edge="1">
          <mxGeometry relative="1" as="geometry">
            <mxPoint x="90" y="560" as="sourcePoint" />
            <mxPoint x="-50" y="79" as="targetPoint" />
            <Array as="points">
              <mxPoint x="-290" y="555" />
              <mxPoint x="-290" y="10" />
              <mxPoint x="60" y="10" />
              <mxPoint x="60" y="79" />
            </Array>
          </mxGeometry>
        </mxCell>
        <mxCell id="hlS4nl4Ak6eGVIMuQ3UB-120" value="0..n" style="edgeLabel;resizable=0;html=1;align=left;verticalAlign=top;" parent="hlS4nl4Ak6eGVIMuQ3UB-119" connectable="0" vertex="1">
          <mxGeometry x="-1" relative="1" as="geometry">
            <mxPoint x="-60" as="offset" />
          </mxGeometry>
        </mxCell>
        <mxCell id="hlS4nl4Ak6eGVIMuQ3UB-121" value="1" style="edgeLabel;resizable=0;html=1;align=right;verticalAlign=top;" parent="hlS4nl4Ak6eGVIMuQ3UB-119" connectable="0" vertex="1">
          <mxGeometry x="1" relative="1" as="geometry">
            <mxPoint x="30" as="offset" />
          </mxGeometry>
        </mxCell>
        <mxCell id="hlS4nl4Ak6eGVIMuQ3UB-122" value="Relation" style="endArrow=open;html=1;endSize=12;startArrow=diamondThin;startSize=14;startFill=0;edgeStyle=orthogonalEdgeStyle;exitX=0;exitY=0.5;exitDx=0;exitDy=0;" parent="WIyWlLk6GJQsqaUBKTNV-1" source="hlS4nl4Ak6eGVIMuQ3UB-44" edge="1">
          <mxGeometry relative="1" as="geometry">
            <mxPoint x="10" y="110" as="sourcePoint" />
            <mxPoint x="-50" y="79" as="targetPoint" />
          </mxGeometry>
        </mxCell>
        <mxCell id="hlS4nl4Ak6eGVIMuQ3UB-123" value="1" style="edgeLabel;resizable=0;html=1;align=left;verticalAlign=top;" parent="hlS4nl4Ak6eGVIMuQ3UB-122" connectable="0" vertex="1">
          <mxGeometry x="-1" relative="1" as="geometry">
            <mxPoint x="-30" as="offset" />
          </mxGeometry>
        </mxCell>
        <mxCell id="hlS4nl4Ak6eGVIMuQ3UB-125" value="" style="endArrow=open;html=1;endSize=12;startArrow=diamondThin;startSize=14;startFill=0;edgeStyle=orthogonalEdgeStyle;exitX=0;exitY=0.5;exitDx=0;exitDy=0;entryX=0;entryY=0;entryDx=0;entryDy=0;" parent="WIyWlLk6GJQsqaUBKTNV-1" target="hlS4nl4Ak6eGVIMuQ3UB-35" edge="1">
          <mxGeometry relative="1" as="geometry">
            <mxPoint x="-200" y="79" as="sourcePoint" />
            <mxPoint x="-100" y="280" as="targetPoint" />
            <Array as="points">
              <mxPoint x="-240" y="79" />
              <mxPoint x="-240" y="400" />
            </Array>
          </mxGeometry>
        </mxCell>
        <mxCell id="hlS4nl4Ak6eGVIMuQ3UB-126" value="0..n" style="edgeLabel;resizable=0;html=1;align=left;verticalAlign=top;" parent="hlS4nl4Ak6eGVIMuQ3UB-125" connectable="0" vertex="1">
          <mxGeometry x="-1" relative="1" as="geometry">
            <mxPoint x="-20" y="321" as="offset" />
          </mxGeometry>
        </mxCell>
        <mxCell id="hlS4nl4Ak6eGVIMuQ3UB-127" value="1" style="edgeLabel;resizable=0;html=1;align=right;verticalAlign=top;" parent="hlS4nl4Ak6eGVIMuQ3UB-125" connectable="0" vertex="1">
          <mxGeometry x="1" relative="1" as="geometry">
            <mxPoint x="-70" y="-310" as="offset" />
          </mxGeometry>
        </mxCell>
      </root>
    </mxGraphModel>
  </diagram>
</mxfile>
